<svg width="24" height="25" viewBox="0 0 24 25" fill="none" xmlns="http://www.w3.org/2000/svg">
<path d="M15.3937 16.955L21.2197 22.7803C21.3611 22.9169 21.5506 22.9925 21.7472 22.9908C21.9439 22.989 22.132 22.9102 22.2711 22.7711C22.4101 22.6321 22.489 22.4439 22.4907 22.2473C22.4924 22.0507 22.4168 21.8612 22.2802 21.7197L2.78019 2.21975C2.711 2.14812 2.62825 2.09098 2.53674 2.05167C2.44524 2.01237 2.34682 1.99168 2.24724 1.99081C2.14766 1.98995 2.0489 2.00892 1.95672 2.04663C1.86455 2.08434 1.78081 2.14003 1.71039 2.21045C1.63997 2.28087 1.58428 2.36461 1.54657 2.45678C1.50886 2.54896 1.48989 2.64772 1.49075 2.7473C1.49162 2.84689 1.51231 2.9453 1.55161 3.0368C1.59092 3.12831 1.64806 3.21106 1.71969 3.28025L5.61219 7.17275C2.61969 9.53525 1.54419 12.9852 1.52919 13.04C1.40919 13.4375 1.63419 13.85 2.03169 13.97C2.42919 14.09 2.84919 13.865 2.96919 13.4675C3.02394 13.277 3.98769 10.2253 6.66369 8.225L9.04494 10.6062C8.57944 11.0114 8.20226 11.508 7.93685 12.0652C7.67144 12.6224 7.52347 13.2282 7.50213 13.8449C7.4808 14.4617 7.58656 15.0763 7.81283 15.6504C8.03911 16.2246 8.38107 16.7461 8.81746 17.1825C9.25385 17.6189 9.77533 17.9608 10.3495 18.1871C10.9237 18.4134 11.5382 18.5191 12.155 18.4978C12.7718 18.4765 13.3776 18.3285 13.9347 18.0631C14.4919 17.7977 14.9885 17.4205 15.3937 16.955ZM14.3294 15.89C14.0645 16.2158 13.7342 16.4824 13.3597 16.6725C12.9853 16.8626 12.5751 16.972 12.1558 16.9936C11.7364 17.0151 11.3172 16.9484 10.9252 16.7977C10.5332 16.6471 10.1773 16.4158 9.88034 16.1188C9.58341 15.8219 9.35212 15.466 9.20144 15.074C9.05076 14.682 8.98405 14.2628 9.00562 13.8434C9.02719 13.424 9.13657 13.0139 9.32667 12.6394C9.51677 12.265 9.78336 11.9346 10.1092 11.6697L14.3294 15.89ZM11.6647 9.512L13.6394 11.4875C13.9874 11.7147 14.2844 12.0125 14.5124 12.3597L16.4879 14.3353C16.4954 14.2243 16.4994 14.1125 16.4999 14C16.5 13.3808 16.3723 12.7682 16.1247 12.2006C15.8772 11.633 15.5151 11.1226 15.0613 10.7013C14.6074 10.28 14.0715 9.95696 13.487 9.75232C12.9026 9.54768 12.2822 9.46587 11.6647 9.512ZM7.94244 5.78975L9.10119 6.95C10.036 6.6454 11.0138 6.49345 11.9969 6.5C18.8257 6.5 20.9332 13.1773 21.0254 13.4675C21.1229 13.79 21.4229 14 21.7454 14V13.9925C21.8622 13.9936 21.9777 13.9672 22.0824 13.9155C22.1871 13.8637 22.2782 13.7881 22.3483 13.6946C22.4184 13.6012 22.4655 13.4926 22.4858 13.3775C22.5062 13.2625 22.4992 13.1443 22.4654 13.0325C22.4422 12.9575 19.9597 5 11.9962 5C10.4437 5 9.09969 5.30225 7.94169 5.78975" fill="black" fill-opacity="0.5"/>
</svg>
