<svg width="51" height="50" viewBox="0 0 51 50" fill="none" xmlns="http://www.w3.org/2000/svg">
<path d="M25.5 46.875C13.4375 46.875 3.625 37.0625 3.625 25C3.625 12.9375 13.4375 3.125 25.5 3.125C37.5625 3.125 47.375 12.9375 47.375 25C47.375 37.0625 37.5625 46.875 25.5 46.875ZM25.5 6.25C15.1562 6.25 6.75 14.6562 6.75 25C6.75 35.3438 15.1562 43.75 25.5 43.75C35.8438 43.75 44.25 35.3438 44.25 25C44.25 14.6562 35.8438 6.25 25.5 6.25Z" fill="white"/>
<path d="M25.5 35.9375C24.625 35.9375 23.9375 35.25 23.9375 34.375V15.625C23.9375 14.75 24.625 14.0625 25.5 14.0625C26.375 14.0625 27.0625 14.75 27.0625 15.625V34.375C27.0625 35.25 26.375 35.9375 25.5 35.9375Z" fill="white"/>
<path d="M34.875 26.5625H16.125C15.25 26.5625 14.5625 25.875 14.5625 25C14.5625 24.125 15.25 23.4375 16.125 23.4375H34.875C35.75 23.4375 36.4375 24.125 36.4375 25C36.4375 25.875 35.75 26.5625 34.875 26.5625Z" fill="white"/>
</svg>
