<svg width="18" height="20" viewBox="0 0 18 20" fill="none" xmlns="http://www.w3.org/2000/svg">
<g clip-path="url(#clip0_65_839)">
<path d="M2.5 20C1.95 20 1.47933 19.8043 1.088 19.413C0.696666 19.0217 0.500667 18.5507 0.5 18V2C0.5 1.45 0.696 0.979333 1.088 0.588C1.48 0.196667 1.95067 0.000666667 2.5 0H10.5L16.5 6V10.35C16.1833 10.2333 15.8583 10.146 15.525 10.088C15.1917 10.03 14.85 10.0007 14.5 10V7H9.5V2H2.5V18H8.85C8.98333 18.3833 9.15 18.7417 9.35 19.075C9.55 19.4083 9.78333 19.7167 10.05 20H2.5ZM12.4 19.5L11 18.1L13.1 16L11 13.9L12.4 12.5L14.5 14.6L16.6 12.5L18 13.9L15.925 16L18 18.1L16.6 19.5L14.5 17.425L12.4 19.5Z" fill="#720007"/>
</g>
<defs>
<clipPath id="clip0_65_839">
<rect width="17.5" height="20" fill="white" transform="translate(0.5)"/>
</clipPath>
</defs>
</svg>
