<svg width="43" height="42" viewBox="0 0 43 42" fill="none" xmlns="http://www.w3.org/2000/svg">
<rect x="0.666748" width="42" height="42" rx="21" fill="#ED3541" fill-opacity="0.75"/>
<path opacity="0.75" d="M17.047 10H26.287C29.807 10 32.667 12.86 32.667 16.38V25.62C32.667 27.3121 31.9948 28.9349 30.7983 30.1313C29.6019 31.3278 27.9791 32 26.287 32H17.047C13.527 32 10.667 29.14 10.667 25.62V16.38C10.667 14.6879 11.3392 13.0651 12.5357 11.8687C13.7321 10.6722 15.3549 10 17.047 10ZM16.827 12.2C15.7767 12.2 14.7695 12.6172 14.0268 13.3599C13.2842 14.1025 12.867 15.1097 12.867 16.16V25.84C12.867 28.029 14.638 29.8 16.827 29.8H26.507C27.5572 29.8 28.5645 29.3828 29.3071 28.6401C30.0498 27.8975 30.467 26.8903 30.467 25.84V16.16C30.467 13.971 28.696 12.2 26.507 12.2H16.827ZM27.442 13.85C27.8067 13.85 28.1564 13.9949 28.4143 14.2527C28.6721 14.5106 28.817 14.8603 28.817 15.225C28.817 15.5897 28.6721 15.9394 28.4143 16.1973C28.1564 16.4551 27.8067 16.6 27.442 16.6C27.0773 16.6 26.7276 16.4551 26.4697 16.1973C26.2119 15.9394 26.067 15.5897 26.067 15.225C26.067 14.8603 26.2119 14.5106 26.4697 14.2527C26.7276 13.9949 27.0773 13.85 27.442 13.85ZM21.667 15.5C23.1257 15.5 24.5246 16.0795 25.5561 17.1109C26.5875 18.1424 27.167 19.5413 27.167 21C27.167 22.4587 26.5875 23.8576 25.5561 24.8891C24.5246 25.9205 23.1257 26.5 21.667 26.5C20.2083 26.5 18.8094 25.9205 17.7779 24.8891C16.7465 23.8576 16.167 22.4587 16.167 21C16.167 19.5413 16.7465 18.1424 17.7779 17.1109C18.8094 16.0795 20.2083 15.5 21.667 15.5ZM21.667 17.7C20.7918 17.7 19.9524 18.0477 19.3335 18.6665C18.7147 19.2854 18.367 20.1248 18.367 21C18.367 21.8752 18.7147 22.7146 19.3335 23.3335C19.9524 23.9523 20.7918 24.3 21.667 24.3C22.5422 24.3 23.3816 23.9523 24.0004 23.3335C24.6193 22.7146 24.967 21.8752 24.967 21C24.967 20.1248 24.6193 19.2854 24.0004 18.6665C23.3816 18.0477 22.5422 17.7 21.667 17.7Z" fill="white"/>
</svg>
