<svg width="43" height="42" viewBox="0 0 43 42" fill="none" xmlns="http://www.w3.org/2000/svg">
<rect x="0.666748" width="42" height="42" rx="21" fill="#ED3541" fill-opacity="0.75"/>
<g opacity="0.75">
<mask id="mask0_64_776" style="mask-type:luminance" maskUnits="userSpaceOnUse" x="10" y="10" width="23" height="22">
<path d="M10.6667 10H32.6667V32H10.6667V10Z" fill="white"/>
</mask>
<g mask="url(#mask0_64_776)">
<path fill-rule="evenodd" clip-rule="evenodd" d="M26.6305 23.1835C26.3573 23.0469 25.0181 22.3888 24.7688 22.2971C24.5194 22.2054 24.3379 22.1614 24.1555 22.4346C23.974 22.7069 23.4524 23.3201 23.2938 23.5016C23.1343 23.684 22.9757 23.706 22.7035 23.5704C22.4312 23.4329 21.5531 23.1459 20.5127 22.2183C19.7032 21.4959 19.156 20.604 18.9974 20.3309C18.8388 20.0586 18.98 19.911 19.1166 19.7754C19.2394 19.6534 19.3888 19.4573 19.5254 19.2987C19.662 19.1401 19.7069 19.0255 19.7977 18.8431C19.8893 18.6616 19.8435 18.503 19.7747 18.3664C19.7069 18.2299 19.1624 16.8888 18.9351 16.3434C18.7142 15.8126 18.4896 15.885 18.3227 15.8759C18.1632 15.8685 17.9817 15.8667 17.8002 15.8667C17.6187 15.8667 17.3236 15.9345 17.0742 16.2077C16.824 16.4799 16.1209 17.139 16.1209 18.4801C16.1209 19.8203 17.0962 21.1155 17.2328 21.2979C17.3694 21.4804 19.1532 24.2313 21.8858 25.411C22.5367 25.6915 23.0436 25.8593 23.4387 25.9839C24.0913 26.192 24.6853 26.1627 25.1547 26.0921C25.6772 26.0142 26.7662 25.433 26.9935 24.7969C27.2208 24.1607 27.2199 23.6153 27.1521 23.5016C27.0842 23.3879 26.9028 23.3201 26.6296 23.1835M21.6594 29.9696H21.6557C20.0327 29.9699 18.4395 29.5336 17.0431 28.7064L16.7131 28.5103L13.2829 29.4104L14.1987 26.0664L13.9832 25.7236C13.0758 24.2793 12.5956 22.6077 12.5982 20.9019C12.6 15.9061 16.6645 11.8416 21.6631 11.8416C22.8536 11.838 24.033 12.0711 25.1327 12.5273C26.2324 12.9835 27.2304 13.6537 28.0688 14.499C28.9125 15.339 29.5813 16.3379 30.0363 17.4381C30.4914 18.5383 30.7237 19.7178 30.7198 20.9084C30.7179 25.9042 26.6534 29.9696 21.6594 29.9696ZM29.3704 13.1974C28.3604 12.181 27.1588 11.3751 25.8352 10.8263C24.5116 10.2775 23.0923 9.99663 21.6594 10C15.6516 10 10.7602 14.8904 10.7584 20.901C10.7555 22.8139 11.2573 24.6937 12.2132 26.3506L10.6667 32L16.4454 30.4839C18.0442 31.3541 19.8354 31.8104 21.6557 31.8112H21.6603C27.6682 31.8112 32.5595 26.9208 32.5613 20.9093C32.5658 19.4768 32.2862 18.0576 31.7386 16.7339C31.1911 15.4101 30.3865 14.2081 29.3713 13.1974" fill="white"/>
</g>
</g>
</svg>
