<svg width="21" height="20" viewBox="0 0 21 20" fill="none" xmlns="http://www.w3.org/2000/svg">
<g clip-path="url(#clip0_65_832)">
<path fill-rule="evenodd" clip-rule="evenodd" d="M0.5 4.857C0.5 3.56884 1.01172 2.33345 1.92258 1.42258C2.83345 0.511718 4.06884 0 5.357 0H10.5C10.7652 0 11.0196 0.105357 11.2071 0.292893C11.3946 0.48043 11.5 0.734784 11.5 1C11.5 1.26522 11.3946 1.51957 11.2071 1.70711C11.0196 1.89464 10.7652 2 10.5 2H5.357C4.59928 2 3.87259 2.301 3.3368 2.8368C2.801 3.37259 2.5 4.09928 2.5 4.857V15.143C2.5 15.9007 2.801 16.6274 3.3368 17.1632C3.87259 17.699 4.59928 18 5.357 18H15.643C16.4007 18 17.1274 17.699 17.6632 17.1632C18.199 16.6274 18.5 15.9007 18.5 15.143V10C18.5 9.73478 18.6054 9.48043 18.7929 9.29289C18.9804 9.10536 19.2348 9 19.5 9C19.7652 9 20.0196 9.10536 20.2071 9.29289C20.3946 9.48043 20.5 9.73478 20.5 10V15.143C20.5 16.4312 19.9883 17.6666 19.0774 18.5774C18.1666 19.4883 16.9312 20 15.643 20H5.357C4.06884 20 2.83345 19.4883 1.92258 18.5774C1.01172 17.6666 0.5 16.4312 0.5 15.143V4.857Z" fill="white"/>
<path fill-rule="evenodd" clip-rule="evenodd" d="M13.6371 11.2191L11.4321 12.5491L10.3991 10.8361L12.6041 9.5061L12.6071 9.5041C12.6916 9.4532 12.7695 9.39207 12.8391 9.3221L17.8491 4.2861C17.8993 4.23551 17.9476 4.18314 17.9941 4.1291C18.3251 3.7431 18.8151 2.9791 18.2221 2.3831C17.7211 1.8791 17.0031 2.3551 16.5381 2.7641C16.4134 2.87406 16.2932 2.98916 16.1781 3.1091L16.1441 3.1431L11.2041 8.1081C11.0868 8.2247 10.9949 8.36429 10.9341 8.5181L10.1101 10.5911C10.0945 10.6301 10.0915 10.673 10.1017 10.7138C10.1118 10.7546 10.1346 10.7911 10.1667 10.8183C10.1988 10.8454 10.2386 10.8617 10.2805 10.8649C10.3224 10.8681 10.3632 10.858 10.3991 10.8361L11.4321 12.5491C9.62708 13.6371 7.47208 11.8091 8.25208 9.8511L9.07708 7.7791C9.23771 7.3742 9.47931 7.00636 9.78708 6.6981L14.7261 1.7321L14.7551 1.7031C14.9021 1.5531 15.3961 1.0471 15.9951 0.683102C16.3221 0.486102 16.8441 0.225102 17.4891 0.175102C18.2291 0.116102 19.0191 0.349102 19.6391 0.972102C20.1136 1.44089 20.4121 2.05895 20.4841 2.7221C20.5336 3.239 20.4546 3.76012 20.2541 4.2391C19.9641 4.9561 19.4801 5.4831 19.2671 5.6961L14.2571 10.7321C14.0704 10.9194 13.8637 11.0818 13.6371 11.2191ZM18.0901 4.0931C18.0901 4.0931 18.0861 4.0961 18.0771 4.0991L18.0901 4.0931Z" fill="white"/>
</g>
<defs>
<clipPath id="clip0_65_832">
<rect width="20" height="20" fill="white" transform="translate(0.5)"/>
</clipPath>
</defs>
</svg>
